<?xml version="1.0" encoding="UTF-8"?>
<svg id="Layer_1" data-name="Layer 1" xmlns="http://www.w3.org/2000/svg" xmlns:xlink="http://www.w3.org/1999/xlink" viewBox="0 0 312 312">
  <defs>
    <style>
      .cls-1 {
        font-size: 12px;
      }

      .cls-1, .cls-2 {
        fill: #445587;
      }

      .cls-1, .cls-3 {
        font-family: Arial-Black, Arial;
        font-weight: 800;
      }

      .cls-4 {
        fill: #f5f5f5;
      }

      .cls-4, .cls-5, .cls-6, .cls-7 {
        stroke-width: 0px;
      }

      .cls-5 {
        fill: none;
      }

      .cls-2 {
        font-family: ArialMT, Arial;
        font-size: 20px;
      }

      .cls-8 {
        clip-path: url(#clippath-1);
      }

      .cls-9 {
        letter-spacing: -.03em;
      }

      .cls-6 {
        fill: #fff;
      }

      .cls-10 {
        clip-path: url(#clippath);
      }

      .cls-7 {
        fill: #ff5512;
      }

      .cls-11 {
        letter-spacing: -.02em;
      }

      .cls-3 {
        font-size: 18px;
      }

      .cls-12 {
        letter-spacing: -.01em;
      }
    </style>
    <clipPath id="clippath">
      <rect class="cls-5" width="292" height="292"/>
    </clipPath>
    <clipPath id="clippath-1">
      <rect class="cls-5" x="208" y="208" width="104" height="104"/>
    </clipPath>
  </defs>
  <g class="cls-10">
    <g>
      <path class="cls-6" d="m3.34,159.32c-1.85-.54-2.96-1.99-3.34-3.62v4.55c1.26-.08,2.51-.17,3.77-.22-.16-.22-.3-.46-.42-.7Z"/>
      <path class="cls-6" d="m13.77,215.42c.52-1.43,1.6-2.64,3.21-3.03,1.44-.35,2.93-.59,4.44-.78.75-.62,1.73-1.04,2.93-1.13,3.49-.25,7.02-.28,10.56-.24,12.44-.24,24.87-.31,37.32.13.96.03,1.91.08,2.87.12,3.38-.02,6.76-.03,10.14-.05-4.72-.84-9.46-1.62-14.2-2.36-17.21-2.68-34.59-3.55-51.88-5.56-5.21-.6-6.3-7.21-2.67-9.33-2.6-1.5-2.65-4.33-1.33-6.46-1.72.03-3.44.05-5.16.08-6.45.11-6.43-9.87,0-10,4.97-.08,9.94-.2,14.91-.33-1.61-.41-3.21-.84-4.81-1.28-2.42-.18-4.84-.38-7.26-.57-4.29-.27-8.58-.61-12.86-1v52.24c.78-1.42,2.19-2.42,4.15-2.26,3.14.26,6.27.52,9.41.79-3.34-2.06-3.29-7.65.21-8.98Z"/>
      <path class="cls-6" d="m287,0H5C2.24,0,0,2.24,0,5v74.24c.47,0,.94,0,1.41-.01.78-1.1,2.07-1.87,3.95-1.86,5.15.03,10.29.11,15.44.21-.79-1.6-.54-3.53.52-5.01-.87-.13-1.74-.25-2.61-.4-6.13-1-3.66-9.19,1.33-9.82,9.88-1.25,19.7-2.95,29.7-2.24,2.53.18,4.27,1.93,4.77,3.96.05,0,.11-.01.16-.01,3.18-.21,6.41-.2,9.6-.29,6.4-.18,12.8-.33,19.2-.36,1.42,0,2.83,0,4.25,0-5.55-4.02-12.39-6.74-18.33-9.3-6.15-2.65-12.39-5.12-18.64-7.51-1.57-.6-3.08-1.14-4.55-1.71-2.94,2.41-7.37,1.86-11.33,1.54-3.11,2.82-9.55.11-8.25-5.08l.35-1.38c.07-.26.16-.52.27-.76-1.24-.03-2.49-.08-3.73-.16-6.43-.43-6.44-9.61,0-10,3.93-.24,7.91-.15,11.83.16,3.08-2.65,8.11-1.38,11.63.22.7.04,1.39.08,2.09.14,4.22.37,5.69,4.53,4.3,7.37.02,0,.03.01.05.02,2.94,1.12,5.86,2.28,8.78,3.45,5.52,2.22,11.03,4.47,16.44,6.95,8.03,3.68,15.91,7.75,21.79,14.3,5.52-1.05,11.71,1.25,17.16,1.98,1.77.02,3.53.04,5.3.05,13.49.09,27.03.01,40.48-1.13,13.02-1.11,25.93-2.63,39.02-1.73,2.47.17,5.29,2.18,5,5-.07.65-.21,1.24-.4,1.79,9.87.98,19.69,2.46,29.36,4.78,4.52,1.08,4.45,6.78,1.19,9.14-5.23,3.79-11.15,6.16-17.58,6.9-4.79.55-9.42-.19-14.07-.74-.59,1.08-1.3,2.06-2.12,2.92,4,1.44,7.5,3.97,10.27,7.42,2.68,3.34,1.08,8.33-3.54,8.54-22.61.98-45.23.81-67.85.11.34.74.46,1.55.38,2.36,7.08,1.12,14.09,2.65,20.97,4.8.4.12.75.31,1.09.53,6.78.44,12.71,3.65,16.06,10.4.02.04.03.08.05.13,2.05.7,4.08,1.49,6.1,2.4,1.58.71,2.34,1.84,2.52,3.08,5.87.91,11.71,2.01,17.5,3.35.54.04,1.09.08,1.63.14.8.08,1.52.37,2.15.78,1.63.41,3.25.84,4.87,1.3,2.49.7,4.25,3.48,3.52,6.03,1.8.44,3.61.88,5.41,1.33,2.16.54,3.87,1.29,5.49,2.23,6.44-1.07,13.16-2.21,19.42.08,3.66,1.34,5.01,7.17,1.56,9.1,3.38,2.09,2.19,7.56-1.56,9-7.19,2.76-15.08,2.92-22.69,2.75-2.43-.05-4.86-.09-7.28-.13,2.54,2.06,2.94,6.64-.43,8.27-4.71,2.27-9.88,3.23-15.19,3.55,2.89,2.26,2.02,8.05-1.89,8.7-2.22.37-4.46.65-6.7.88-.35.63-.87,1.17-1.54,1.57,1.78.03,3.57.07,5.35.1,5.58.11,11.2-.48,16.75.23,5.12.65,7.34,8.56,1.33,9.82-2.59.54-5.24.9-7.93,1.14-.71,1.43-2.12,2.49-4.27,2.49-2.96,0-5.92-.03-8.88-.07-5.32.21-10.61.83-15.87,1.67.74,1.88.42,4.15-.98,5.56,3.68-.13,7.36-.22,11.05-.23,2,0,3.34.83,4.09,2.02.45-.97.92-1.92,1.44-2.83,1.07-1.87,2.74-2.55,4.38-2.42.04-.06.07-.11.11-.17,2.38-3.74,7.11-2.59,8.76.33.54-.13,1.1-.17,1.64-.14.04-.06.08-.13.13-.19,2.92-4.27,8.97-1.98,9.37,2.04.07-.1.14-.19.22-.29,1.59-2.03,4.04-1.89,5.93-.73,1.84.12,3.41,1.25,4.32,2.7,2.51-2.02,7-1.73,8.12,2.31,1.63,5.92,4.31,11.79,6.79,17.42,1.22,2.77,2.72,5.39,3.98,8.13,1.04,2.28,1.26,5.63,2.8,7.51,2.8,3.41.29,10.34-4.86,8.36-5.12-1.97-10.13-5.45-14.98-8.12-6.22-3.41-13.03-5.58-19.55-8.33-4.73-1.99-4.82-10.25,1.33-9.82.62.04,1.27.08,1.91.12-.08-1,.02-2.05.24-3.11-.72.49-1.46.96-2.21,1.43-2.15,1.34-4.54.65-6.04-.91-1.3.19-2.63-.09-3.72-.69-1.1.67-2.31,1.18-3.7,1.41-.43.07-.87.09-1.31.06-.63.61-1.29,1.17-1.98,1.68-4.52,3.27-8.64-2.84-6.84-6.84.13-.3.26-.6.39-.9-1.29.46-2.66.73-4.06.89.54,2.75-1.27,5.94-4.79,6.15-.41.02-.82.04-1.22.06-2.37,1.14-5.23,1.38-7.81,1.58-5.86.46-11.77.46-17.64.43-11.34-.05-22.97-.02-33.99-3.01-4.42.47-9.03.99-13.52.96-2.41.66-4.98.88-7.56.94.44.11.89.22,1.33.33,5.66,1.46,13.53,2.29,17.47,7.09,1.12,1.37,1.54,3.05,1.27,4.58,2.89.98,5.49,2.34,7.37,4.4,2.56,2.81,1.49,7.22-2.21,8.36-3.83,1.18-7.93,1.52-12.01,1.63-.89,1.42-2.4,2.52-4.17,2.69-13.29,1.27-26.56-.59-39.68-2.73-11.1.34-22.37,1.42-33.13-1.94-2.26-.7-3.58-2.83-3.61-4.94-4.39-1.01-8.78-2.11-13.14-3.35-3.92-1.12-4.35-5-2.6-7.51-.21-.09-.41-.2-.6-.31-4.76-.86-9.51-1.81-14.23-2.88-1.32-.3-2.25-1.06-2.82-2.03v55.6c0,2.76,2.24,5,5,5h282c2.76,0,5-2.24,5-5V5c0-2.76-2.24-5-5-5Z"/>
      <path class="cls-6" d="m63.19,102.98c-1.36-.08-2.71-.17-4.07-.25-13.13-.23-26.24-.9-39.29-2.48-6.68.15-13.2.53-19.82-.47v34.92c5.18-.08,10.36-.31,15.53-.55.26-1.16.93-2.2,2.02-2.86-1.59-.13-3.18-.26-4.77-.4-.39-.04-.75-.1-1.09-.2-.73-.05-1.46-.1-2.19-.15-5.59-.37-6.33-8.05-2.11-9.7-1.53-1.06-2.26-2.9-2.18-4.64-3.09-2.1-2.05-7.8,1.75-8.95,1.7-.51,3.41-.92,5.13-1.26.75-1.3,2.13-2.23,4.14-2.2,14.45.21,28.9.51,43.34.86,6.02.06,12.04.14,18.06.27,2.27.05,4.54.11,6.82.17-2.64-.26-5.28-.51-7.92-.75-4.45-.41-8.9-.88-13.35-1.36Z"/>
      <path class="cls-6" d="m180.69,91.43c-.9-.14-1.82-.22-2.75-.2-2.98.05-5.96.06-8.94.08.01.03.03.05.04.08,1.39.05,2.78.08,4.17.13,2.67.09,5.07.12,7.48-.08Z"/>
      <g class="cls-8">
        <path class="cls-4" d="m260.68,260.19l-20.6-48.54c26.83-10.04,58.36,1.11,68.27,27.69,9.82,26.34-1.61,57.09-27.64,68.4-26.42,11.49-57.15-1.12-68.41-27.64-5.59-13.16-5.35-27.33-.45-39.65l48.83,19.73Z"/>
      </g>
    </g>
  </g>
  <text class="cls-3" transform="translate(23.42 79.11)"><tspan x="0" y="0">Месть</tspan></text>
  <text class="cls-1" transform="translate(24.97 38.87)"><tspan x="0" y="0">06.</tspan></text>
  <text class="cls-2" transform="translate(23.53 122.9)"><tspan x="0" y="0">На</tspan><tspan class="cls-11" x="25.57" y="0">г</tspan><tspan x="32.42" y="0">адить </tspan><tspan class="cls-12" x="91.52" y="0">в</tspan><tspan x="101.92" y="0">ашим</tspan><tspan x="0" y="24">вра</tspan><tspan class="cls-11" x="32.87" y="24">г</tspan><tspan x="39.73" y="24">ам, ос</tspan><tspan class="cls-12" x="96.84" y="24">т</tspan><tspan x="105.77" y="24">авшись</tspan><tspan x="0" y="48">н</tspan><tspan class="cls-11" x="11.04" y="48">е</tspan><tspan x="21.73" y="48">зам</tspan><tspan class="cls-9" x="55.77" y="48">е</tspan><tspan x="66.23" y="48">ченным.</tspan></text>
  <path class="cls-7" d="m235.52,209.42c-6.02,2.55-17.48,8.54-23.83,20.98-1.08,2.12-2.53,6.22-2.53,6.22l46.49,18.71"/>
</svg>