<?xml version="1.0" encoding="UTF-8"?>
<svg id="Layer_1" data-name="Layer 1" xmlns="http://www.w3.org/2000/svg" xmlns:xlink="http://www.w3.org/1999/xlink" viewBox="0 0 312 312">
  <defs>
    <style>
      .cls-1 {
        letter-spacing: -.02em;
      }

      .cls-2 {
        font-size: 12px;
      }

      .cls-2, .cls-3 {
        fill: #445587;
      }

      .cls-2, .cls-4 {
        font-family: Arial-Black, Arial;
        font-weight: 800;
      }

      .cls-5 {
        fill: #f14d34;
      }

      .cls-5, .cls-6, .cls-7, .cls-8 {
        stroke-width: 0px;
      }

      .cls-6 {
        fill: #f5f5f5;
      }

      .cls-7 {
        fill: none;
      }

      .cls-3 {
        font-family: ArialMT, Arial;
        font-size: 20px;
      }

      .cls-9 {
        clip-path: url(#clippath-1);
      }

      .cls-10 {
        letter-spacing: -.03em;
      }

      .cls-8 {
        fill: #fff;
      }

      .cls-11 {
        letter-spacing: -.08em;
      }

      .cls-12 {
        clip-path: url(#clippath);
      }

      .cls-13 {
        letter-spacing: -.02em;
      }

      .cls-4 {
        font-size: 18px;
      }

      .cls-14 {
        letter-spacing: .01em;
      }

      .cls-15 {
        letter-spacing: -.01em;
      }
    </style>
    <clipPath id="clippath">
      <rect class="cls-7" width="292" height="292"/>
    </clipPath>
    <clipPath id="clippath-1">
      <rect class="cls-7" x="208" y="208" width="104" height="104"/>
    </clipPath>
  </defs>
  <g class="cls-12">
    <g>
      <path class="cls-8" d="m9.25,88.32c-.77-.7-1.2-1.51-1.39-2.34-2.29-.32-4.48-.96-6.41-2.32-.62-.43-1.09-.95-1.45-1.5v6.34c3.36.15,6.73.31,10.09.48-.29-.2-.57-.42-.84-.66Z"/>
      <path class="cls-8" d="m287,0H5C2.24,0,0,2.24,0,5v40.69c1.3-.15,2.61-.3,3.91-.45,6.85-.84,13.64-2.05,20.41-3.38-3.06-.09-6.03-1.07-8.33-3.27-.24-.23-.44-.47-.61-.73-4.35-1.45-3.31-8.11.75-9.44,8.49-2.78,18.15-2.89,27.02-2.47,8.05.39,16.97,1.47,23.17,7.12,1.87,1.7,2.01,5.39,0,7.07-5.97,5-13.47,6.36-20.96,7.69-2.38,3.66-3.81,7.89-4.7,12.3,4.43.25,8.85.5,13.28.76,10.77.62,21.56,1.21,32.33,1.94,2.63-.13,5.25-.26,7.87-.4,29.15-1.62,58.36-2.77,87.52-.78,4.02.27,5.92,3.98,4.32,7.52-.79,1.76-2.51,2.73-4.45,3.32.46.31.91.63,1.36.98,3.28,2.52,3.31,7.82-1.19,9.14-3.9,1.14-7.88,1.94-11.91,2.53,3.55.62,7.08,1.31,10.61,2.07,2.96.64,4.82,4.78,2.99,7.34-3.11,4.34-9.25,5.4-14.92,5.78.61.11,1.22.23,1.83.35,2.04.4,3.12,1.66,3.46,3.15,1.12.24,2.22.48,3.26.7,5.87,1.2,16.27,3.05,19.37,9.31,3.86.95,7.68,2.07,11.45,3.42,4.31,1.55,4.64,6.48,1.19,9.14-3.04,2.34-6.37,4.15-9.9,5.37.66.26,1.32.51,1.97.78.15.06.29.14.44.21,6.43.83,12.85,1.76,19.25,2.9,3.15.56,4.29,4.31,3.16,6.96,6.75.24,13.5.58,20.23,1,6.38.4,12.85.9,19.11,2.23,4.09.86,8.95,2.22,11.08,6.02,1.65.31,3.25.79,4.85,1.65,3.79,2.05,2.89,8.08-1.19,9.14-3.32.86-6.68,1.27-10.05,1.41-.38.51-.86.93-1.44,1.2-6.66,3.08-13.77,3.96-21.01,4.55-8.32.69-16.6,1.65-24.92,2.47-3.29.32-6.59.63-9.88.93.84.37,1.67.78,2.46,1.29,3.43,2.18,3.21,8.2-1.19,9.14-4.25.91-8.49,1.13-12.74,1.01-3.56.31-7.15.49-10.76.58,1.1.27,2.24.71,3.41,1.38,4.77-.93,9.34.39,12.71,5.74,1.25,1.98.63,4.4-.78,6.06-2.67,3.15-6.54,6.16-10.33,7.28,1,.49,1.87,1.28,2.44,2.23,2.55-.6,5.71.97,6.48,3.43.96-.33,1.96-.24,2.86.14.18-.16.36-.32.54-.47,2.27-1.84,5.2-1.79,7.03.03,2.54-.69,5.84.8,6.51,3.47.05.22.11.44.16.65,1.35,1.03,2.03,2.72,1.13,4.85.03-.3.06-.6.08-.91-.23,2.82-2.89,5.88-6.03,4.91-.49.41-1.01.79-1.57,1.16-.08.14-.16.29-.24.43-2.09,3.73-6.72,2.8-8.53-.08-.17.11-.34.22-.52.32-1.57.87-3.33.76-4.76.03-.96.16-1.88.05-2.68-.29-1.68,2.15-3.85,3.8-6.96,4.39-1.96.37-4.28-.37-5.5-1.95-.94.2-1.89.33-2.82.35-.32.11-.66.22-1,.3-2.16.54-4.13-.32-5.26-1.84-.97-.15-1.92-.39-2.83-.75-1.29-.51-2.51-1.56-3.2-2.83-3.35.29-6.69.58-10.04.78-.49,1.44-1.57,2.66-3.27,3.09-12.5,3.15-26.46-.02-38.49-3.83-1.18-.04-2.36-.07-3.55-.11-.53,2.13-2.54,3.68-4.88,3.86-19.93,1.54-40.06.93-59.6-3.55-1.55-.35-2.59-1.43-3.14-2.75-4.12,3.68-8.55,7.14-11.97,11.36-3.14,3.87-7.07,5.99-12.08,4.34-2.99-.99-4.74-4.47-2.99-7.34.38-.62.77-1.22,1.16-1.84-1.68-.43-3.18-1.53-3.47-3.38-1.06-6.72.86-12.76,3.05-18.84-2.13-.62-3.69-2.37-3.74-4.76-.06-2.83,1.49-4.89,3.7-6.45-.72-3.13-1.14-6.28-1.09-9.32-6.14-.43-12.29-.74-18.43-.95v103.43c0,2.76,2.24,5,5,5h282c2.76,0,5-2.24,5-5V5c0-2.76-2.24-5-5-5Z"/>
      <path class="cls-8" d="m33.29,50.24c-7.62,1.58-15.27,3.07-22.97,4.16-3.43.48-6.87.88-10.32,1.26v2.47c1.73.08,3.46.16,5.19.23,8.51.35,17.01.77,25.51,1.23.62-3.25,1.46-6.38,2.59-9.35Z"/>
      <path class="cls-8" d="m18.09,111.58c-.59-1.26-.69-2.75-.3-4.05-5.94-.32-11.87-.74-17.79-1.27v5.7c1.54.11,3.07.21,4.6.33,4.49-.29,8.99-.53,13.49-.72Z"/>
      <path class="cls-8" d="m135.61,212.97c.82-.76,1.92-1.28,3.3-1.36,4.05-.21,8.15-.49,12.25-.63.06,0,.12-.02.17-.03,3.48-.56,8.38-1.78,11.69.19,2.1.16,4.2.42,6.28.79.51-.04,1.03-.05,1.55-.05,1.85-.56,3.65-1.36,5.43-2.17,1.97-.9,3.91-.71,5.33.29,2.5-1.44,5.08-2.71,7.17-4.05-1.79-.42-3.41-1.52-4.68-3.57-.3-.01-.6-.02-.9-.03-1.34.83-2.71,1.61-4.17,2.22-1.88.79-3.81,1.12-5.76,1.23-.56,1.73-2.07,3.18-4.57,3.39-11.32.95-22.65,1.71-33.98,2.37.37.43.67.91.9,1.42Z"/>
      <path class="cls-8" d="m77.99,129.21c-.84,0-1.68.01-2.53.02,1.62.13,3.24.25,4.87.37.41,0,.82-.01,1.22-.02-1.19-.13-2.38-.25-3.56-.38Z"/>
      <path class="cls-8" d="m165.3,166.22c-4.37.07-8.73.13-13.1.18.73.07,1.46.14,2.19.21,1.92-.06,3.85-.12,5.77-.18,1.72-.06,3.43-.13,5.15-.2Z"/>
      <path class="cls-8" d="m190.3,122.69c-.98.2-1.97.39-2.96.57,1.49-.02,2.91-.11,4.28-.28-.44-.1-.88-.2-1.32-.29Z"/>
      <path class="cls-8" d="m120.47,185.32c-5.65-.7-11.28-.62-16.9-.06.76,1,1.11,2.27,1.05,3.52,2.55-.11,5.11-.22,7.66-.33,2.85-.87,5.65-1.78,8.19-3.13Z"/>
      <path class="cls-8" d="m135.46,184.95c-.3.42-.61.83-.92,1.23,2.49-.28,4.98-.53,7.48-.73,1.54-.12,2.92.67,3.84,1.84.85-.02,1.7-.05,2.55-.08,1.72-.05,3.44-.11,5.16-.16,3.26-.69,6.53-1.36,9.8-2.04-2.68-.05-5.35-.09-8-.1-6.59-.02-13.18-.1-19.76-.22-.05.08-.09.17-.15.25Z"/>
      <g class="cls-9">
        <g>
          <path class="cls-6" d="m308.44,250c-3.28,0-6.06-2.28-7.2-5.35-.37-1-.78-1.98-1.22-2.95-1.36-2.98-1.01-6.56,1.31-8.88,1.39-1.39,1.39-3.65,0-5.04l-9.11-9.11c-1.39-1.39-3.65-1.39-5.04,0-2.32,2.32-5.9,2.67-8.88,1.31-.96-.44-1.95-.85-2.95-1.22-3.07-1.14-5.35-3.93-5.35-7.2,0-1.97-1.59-3.56-3.56-3.56h-12.88c-1.97,0-3.56,1.59-3.56,3.56,0,3.28-2.28,6.06-5.35,7.2-1,.37-1.99.78-2.95,1.22-2.98,1.36-6.56,1.01-8.88-1.31-1.39-1.39-3.65-1.39-5.04,0l-9.11,9.11c-1.39,1.39-1.39,3.65,0,5.04,2.32,2.32,2.67,5.9,1.31,8.88-.44.96-.85,1.95-1.22,2.95-1.14,3.07-3.93,5.35-7.2,5.35-1.97,0-3.56,1.59-3.56,3.56v12.88c0,1.97,1.59,3.56,3.56,3.56,3.28,0,6.06,2.28,7.2,5.35.37,1,.78,1.99,1.22,2.95,1.36,2.98,1.01,6.56-1.31,8.88-1.39,1.39-1.39,3.65,0,5.04l9.11,9.11c1.39,1.39,3.65,1.39,5.04,0,2.32-2.32,5.9-2.67,8.88-1.31.96.44,1.95.85,2.95,1.22,3.07,1.14,5.35,3.93,5.35,7.2,0,1.97,1.59,3.56,3.56,3.56h12.88c1.97,0,3.56-1.59,3.56-3.56,0-3.28,2.28-6.06,5.35-7.2,1-.37,1.98-.78,2.95-1.22,2.98-1.36,6.56-1.01,8.88,1.31,1.39,1.39,3.65,1.39,5.04,0l9.11-9.11c1.39-1.39,1.39-3.65,0-5.04-2.32-2.32-2.67-5.9-1.31-8.88.44-.96.85-1.95,1.22-2.95,1.14-3.07,3.93-5.35,7.21-5.35,1.97,0,3.56-1.59,3.56-3.56v-12.88c0-1.97-1.59-3.56-3.56-3.56Zm-48.44,28c-9.94,0-18-8.06-18-18s8.06-18,18-18,18,8.06,18,18-8.06,18-18,18Z"/>
          <path class="cls-5" d="m260,234c-14.36,0-26,11.64-26,26s11.64,26,26,26,26-11.64,26-26-11.64-26-26-26Zm0,44c-9.94,0-18-8.06-18-18s8.06-18,18-18,18,8.06,18,18-8.06,18-18,18Z"/>
        </g>
      </g>
    </g>
  </g>
  <text class="cls-4" transform="translate(25.07 78.86)"><tspan x="0" y="0">Посидеть на руках</tspan></text>
  <text class="cls-2" transform="translate(26.62 38.61)"><tspan x="0" y="0">07.</tspan></text>
  <text class="cls-3" transform="translate(25.12 136.26)"><tspan x="0" y="0">Прижм</tspan><tspan class="cls-10" x="63.8" y="0">е</tspan><tspan class="cls-15" x="74.26" y="0">т</tspan><tspan x="83.19" y="0">есь к не</tspan><tspan class="cls-14" x="156.77" y="0">м</tspan><tspan x="170.74" y="0">у</tspan><tspan class="cls-15" x="0" y="24">щ</tspan><tspan x="16.23" y="24">е</tspan><tspan class="cls-14" x="27.35" y="24">к</tspan><tspan x="36.33" y="24">ой и </tspan><tspan class="cls-15" x="80.91" y="24">у</tspan><tspan x="90.68" y="24">слыш</tspan><tspan class="cls-11" x="142.77" y="24">ь</tspan><tspan class="cls-15" x="151.63" y="24">т</tspan><tspan x="160.57" y="24">е</tspan><tspan x="0" y="48">биение е</tspan><tspan class="cls-13" x="83.77" y="48">г</tspan><tspan x="90.62" y="48">о се</tspan><tspan class="cls-1" x="128.43" y="48">р</tspan><tspan x="139.09" y="48">дца.</tspan></text>
</svg>