<?xml version="1.0" encoding="UTF-8"?>
<svg id="Layer_1" data-name="Layer 1" xmlns="http://www.w3.org/2000/svg" xmlns:xlink="http://www.w3.org/1999/xlink" viewBox="0 0 324 317">
  <defs>
    <style>
      .cls-1 {
        font-size: 12px;
      }

      .cls-1, .cls-2 {
        fill: #445587;
      }

      .cls-1, .cls-3 {
        font-family: Arial-Black, Arial;
        font-weight: 800;
      }

      .cls-4 {
        letter-spacing: .02em;
      }

      .cls-5 {
        fill: #f14d34;
      }

      .cls-5, .cls-6, .cls-7, .cls-8 {
        stroke-width: 0px;
      }

      .cls-6 {
        fill: #f5f5f5;
      }

      .cls-7 {
        fill: none;
      }

      .cls-2 {
        font-family: ArialMT, Arial;
        font-size: 20px;
      }

      .cls-9 {
        clip-path: url(#clippath-1);
      }

      .cls-8 {
        fill: #fff;
      }

      .cls-10 {
        clip-path: url(#clippath);
      }

      .cls-11 {
        letter-spacing: -.02em;
      }

      .cls-3 {
        font-size: 18px;
      }

      .cls-12 {
        letter-spacing: -.01em;
      }
    </style>
    <clipPath id="clippath">
      <rect class="cls-7" width="292" height="292"/>
    </clipPath>
    <clipPath id="clippath-1">
      <rect class="cls-7" x="203" y="196" width="121" height="121"/>
    </clipPath>
  </defs>
  <g class="cls-10">
    <g>
      <path class="cls-8" d="m287,0H5C2.24,0,0,2.24,0,5v61.2c6.71-.49,13.42-.97,20.14-1.43-5.87-.76-12.24-2.27-14.78-6.64-1.86-3.2.49-7.64,4.32-7.52,5.24.16,10.48.31,15.72.46-5.95-.42-11.87-1.13-17.74-2.03-5.87-.91-3.95-9.54,1.33-9.82,5-.26,10.01-.36,15.01-.32.04-.21.09-.43.15-.65.05-.17.12-.33.18-.5-5.47-1-10.82-2.48-15.8-5.1-5.44-2.86-1.31-9.94,3.85-9.14,6.81,1.06,13.41,2.76,20.01,4.54.35-.1.72-.19,1.11-.23,4.35-.51,8.53.76,12.19,3.1.4.25.73.58,1.02.93,6.44,1.7,12.7,3.86,16.79,9.41,3.28.32,6.55.65,9.83.99,16.47,1.7,32.83,4.29,48.51,9.49,13.72.47,27.43,1.16,41.12,2.1,7.03.07,14.05.16,21.08.33,9.29.22,19.8,1.98,28.85-.05,6.89-1.55,13.16-.88,18.22,4.52,2.96,3.16.87,8.46-3.54,8.54-2.6.05-5.2.07-7.8.11,2.41,2.78,1.28,7.73-3.6,8.18-13.06,1.2-26.14,1.21-39.22.87,2.84,3.37.77,8.1-3.6,8.45-3.55.29-7.1.55-10.65.79.46.36.9.74,1.33,1.14,12.09-.27,24.16.18,36.21,2.4,5.84,1.08,3.98,9.53-1.33,9.82-9.3.5-18.61.82-27.91,1.01,6.01.95,11.98,2.08,17.92,3.4,3.44-.46,6.89-.89,10.34-1.29,2.85-.33,5.02,2.53,5,5.21,5.15,1.49,10.25,3.15,15.3,5,12.94,1.54,25.58,4.83,37.48,10.85,3.96,2,2.73,8-1.19,9.14-2.34.68-4.7,1.28-7.06,1.84.28.09.57.17.85.26,4.55,1.43,4.95,8.41,0,9.64-8.4,2.1-16.89,3.03-25.42,3.28,0,0,.02,0,.02.01.66.4,1.18.92,1.56,1.52,5.83,1.03,11.6,2.39,17.27,4.2,4.2,1.34,4.81,6.75,1.19,9.14-2.61,1.72-5.38,3.09-8.31,4.06,6.06.7,12.12,1.48,18.16,2.34,3.75.53,4.35,4.76,2.73,7.5,3.15,1.99,2.8,7.31-.92,8.82,4.16.33,8.29.9,12.35,1.98,5.69,1.52,4.11,9.46-1.33,9.82-8.48.56-16.85-.4-25.32-.65-5.02-.15-9.96.12-14.91-.12-14.2,2.66-28.49,4.94-42.82,6.07.03,1.78-1,3.6-2.48,4.72-7.42,5.66-16.59,7.97-26.15,8.67-.09.04-.17.08-.26.12-3.09,1.27-6.44,1.43-9.8,1.16-.85,1.06-2.07,1.79-3.61,1.78-.22,0-.44,0-.66-.01-.31,1.8-1.55,3.42-3.54,3.98-14.21,3.94-28.98,3.24-43.64,1.56-6.47.64-13.01.89-19.39,1.3-.54.04-1.08.09-1.63.13-17.17,6.06-36.07,6.49-54.08,6.86-4.99.1-6.76-6.86-2.52-9.32,1-.58,2.04-1.06,3.12-1.49-6.64-.61-13.28-1.63-19.25-4.44v70.02c0,2.76,2.24,5,5,5h282c2.76,0,5-2.24,5-5V5c0-2.76-2.24-5-5-5Z"/>
      <path class="cls-8" d="m0,83.3v2.3c3.63-.62,7.27-1.24,10.9-1.84-3.51-.12-7.03-.37-10.54-.46-.12,0-.24,0-.36,0Z"/>
      <path class="cls-8" d="m14.51,109.15c6.58.85,13.19,1.55,19.79,2.19,10.16-.85,20.36-1.13,30.58-1.08.28-.08.56-.17.84-.25-3.84-.31-7.66-.73-11.48-1.21-.28,0-.56.02-.84.03-12.96.28-25.94.47-38.9.33Z"/>
      <path class="cls-8" d="m11.1,153.64c-3.7-.07-7.4-.13-11.1-.19v1.02c3.92-.31,7.85-.59,11.79-.8-.23-.01-.46-.02-.69-.03Z"/>
      <path class="cls-8" d="m150.98,205.61c.95-.03,1.9-.08,2.84-.14.06,0,.12-.01.17-.01,3.54-.26,7.02-.78,10.34-1.67-.27-.01-.52-.03-.76-.05-4.38-.35-8.77-.54-13.16-.66.44.8.61,1.68.56,2.54Z"/>
      <path class="cls-8" d="m192.72,175.45c0,.35-.02.69-.08,1.04,1.64.01,3.29.03,4.93.04,2.72-.14,5.44-.27,8.17-.39-4.34-.23-8.68-.46-13.02-.69Z"/>
      <path class="cls-8" d="m119.38,105.16c4.01.85,7.99,1.79,11.96,2.83,7.03.11,14.06.35,21.08.86,1.68-.27,3.36-.54,5.05-.81-12.61-1.55-25.32-2.43-38.06-2.89,0,0-.02,0-.02,0Z"/>
      <path class="cls-8" d="m54.31,50.45c-.14.02-.27.03-.41.05,2,.31,3.93.42,6.05.45-1.88-.17-3.76-.34-5.64-.49Z"/>
      <g class="cls-9">
        <g>
          <path class="cls-6" d="m317.29,300.31h-107.58c-3.71,0-6.71-3-6.71-6.71v-74.2c0-3.71,3-6.71,6.71-6.71h107.58c3.71,0,6.71,3,6.71,6.71v74.2c0,3.71-3,6.71-6.71,6.71Z"/>
          <path class="cls-6" d="m324,223.12h-121v16.69h121v-16.69Z"/>
          <path class="cls-6" d="m234.29,250.24h-18.78c-1.15,0-2.09.93-2.09,2.09s.93,2.09,2.09,2.09h18.78c1.15,0,2.09-.93,2.09-2.09s-.93-2.09-2.09-2.09Z"/>
          <path class="cls-6" d="m263.5,252.33c0-1.15-.93-2.09-2.09-2.09h-18.78c-1.15,0-2.09.93-2.09,2.09s.93,2.09,2.09,2.09h18.78c1.15,0,2.09-.93,2.09-2.09Z"/>
          <path class="cls-6" d="m217.6,260.67h-2.09c-1.15,0-2.09.93-2.09,2.09s.93,2.09,2.09,2.09h2.09c1.15,0,2.09-.93,2.09-2.09s-.93-2.09-2.09-2.09Z"/>
          <path class="cls-6" d="m230.12,260.67h-4.17c-1.15,0-2.09.93-2.09,2.09s.93,2.09,2.09,2.09h4.17c1.15,0,2.09-.93,2.09-2.09s-.93-2.09-2.09-2.09Z"/>
          <path class="cls-6" d="m240.55,260.67h-2.09c-1.15,0-2.09.93-2.09,2.09s.93,2.09,2.09,2.09h2.09c1.15,0,2.09-.93,2.09-2.09s-.93-2.09-2.09-2.09Z"/>
          <path class="cls-6" d="m253.07,260.67h-4.17c-1.15,0-2.09.93-2.09,2.09s.93,2.09,2.09,2.09h4.17c1.15,0,2.09-.93,2.09-2.09s-.93-2.09-2.09-2.09Z"/>
          <path class="cls-6" d="m259.93,261.28c-.38.4-.61.94-.61,1.48s.23,1.08.61,1.48c.39.38.91.61,1.48.61s1.08-.23,1.48-.61c.38-.4.61-.94.61-1.48s-.23-1.08-.61-1.48c-.77-.77-2.19-.77-2.96,0Z"/>
          <path class="cls-5" d="m311.48,266.93h-33.38v20.86h33.38v-20.86Z"/>
        </g>
      </g>
    </g>
  </g>
  <text class="cls-3" transform="translate(23.56 79.36)"><tspan x="0" y="0">Мурчательный</tspan><tspan x="0" y="21.6">массаж</tspan></text>
  <text class="cls-1" transform="translate(25.1 39.11)"><tspan x="0" y="0">08.</tspan></text>
  <text class="cls-2" transform="translate(23.61 136.76)"><tspan x="0" y="0">Н</tspan><tspan class="cls-11" x="14.44" y="0">е</tspan><tspan x="25.13" y="0">забы</tspan><tspan class="cls-12" x="71.25" y="0">в</tspan><tspan x="81.65" y="0">аемая</tspan><tspan x="0" y="24">раб</tspan><tspan class="cls-11" x="33.7" y="24">о</tspan><tspan class="cls-12" x="44.38" y="24">т</tspan><tspan x="53.32" y="24">а лап</tspan><tspan class="cls-4" x="103.62" y="24">к</tspan><tspan x="112.81" y="24">ами</tspan><tspan class="cls-11" x="0" y="48">о</tspan><tspan x="10.68" y="48">т лучших ушастых</tspan><tspan x="0" y="72">специалис</tspan><tspan class="cls-12" x="98.54" y="72">т</tspan><tspan x="107.48" y="72">ов.</tspan></text>
</svg>