<svg width="1440" height="816" viewBox="0 0 1440 816" fill="none" xmlns="http://www.w3.org/2000/svg">
<rect width="1440" height="816" fill="#040613"/>
<rect width="1440" height="816" fill="url(#paint0_linear_4619_304)" fill-opacity="0.276"/>
<g filter="url(#filter0_dd_4619_304)">
<mask id="mask0_4619_304" style="mask-type:alpha" maskUnits="userSpaceOnUse" x="599" y="-17" width="256" height="186">
<path d="M714.267 112.075L746.702 104.351L738.977 71.9159L706.542 79.6406L714.267 112.075Z" fill="#F9E050"/>
<path d="M647.402 43.2512L679.837 35.5266L674.187 11.8056L641.752 19.5303L647.402 43.2512Z" fill="#F4F464"/>
<path d="M676.972 61.4455L709.407 53.7208L701.682 21.286L669.247 29.0107L676.972 61.4455ZM605.341 78.5051L629.223 72.8173L623.536 48.9349L599.653 54.6228L605.341 78.5051ZM658.77 90.9833L682.652 85.2955L676.964 61.4132L653.082 67.101L658.77 90.9833Z" fill="#F4F464"/>
<path d="M719.94 135.893L752.374 128.169L744.65 95.7338L712.215 103.458L719.94 135.893Z" fill="#F9B038"/>
<path d="M715.061 153.288L756.016 143.534L750.328 119.652L709.373 129.406L715.061 153.288Z" fill="#F6842D"/>
<path d="M651.967 168.315L675.85 162.627L670.162 138.745L646.28 144.433L651.967 168.315Z" fill="#F9E050"/>
<path d="M697.204 40.4282L729.638 32.7035L721.952 0.430109L689.517 8.15479L697.204 40.4282Z" fill="#F6842D"/>
<path d="M670.141 138.732L694.024 133.045L688.336 109.162L664.454 114.85L670.141 138.732Z" fill="#F4F464"/>
<path d="M726.628 58.6574L759.063 50.9328L751.338 18.498L718.903 26.2227L726.628 58.6574Z" fill="#F4AC2B"/>
<path d="M732.304 82.491L764.739 74.7663L757.014 42.3315L724.58 50.0562L732.304 82.491Z" fill="#F6842D"/>
<path d="M738.004 106.422L770.439 98.6969L762.714 66.2621L730.279 73.9868L738.004 106.422Z" fill="#F4AC2B"/>
<path d="M743.676 130.24L776.111 122.516L768.386 90.081L735.952 97.8057L743.676 130.24Z" fill="#F6842D"/>
<path d="M713.415 2.46355L719.065 26.1845L742.786 20.5351L765.529 116.032L741.647 121.72L747.335 145.602L811.349 130.357C820.967 128.066 829.032 124.986 835.509 121.107C841.993 117.261 846.823 112.052 850.035 105.49C853.246 98.927 854.867 90.6971 854.833 80.8151C854.806 70.9654 853.063 58.8474 849.627 44.4212C846.16 29.8659 842.331 18.296 838.129 9.74747C833.873 1.04146 828.943 -5.33848 823.343 -9.37621C817.738 -13.6095 810.928 -15.9423 803.904 -16.035C796.585 -16.338 788.044 -15.327 778.313 -13.0096L737.116 -3.19814L713.415 2.46355ZM766.697 10.458L782.14 6.78018C787.465 5.51195 792.226 5.02601 796.359 5.33774C800.64 5.51146 804.679 7.36839 807.599 10.5047C810.968 13.6243 813.984 18.4137 816.684 24.8814C819.529 31.3145 822.268 40.0921 824.919 51.2264C827.563 62.3284 829.058 71.4703 829.465 78.6205C829.987 85.607 829.469 91.3064 827.914 95.735C826.478 99.8247 823.703 103.31 820.038 105.625C816.462 107.79 812.089 109.479 806.877 110.721L791.451 114.395L766.697 10.458Z" fill="#F14D34"/>
<path d="M700.855 55.7583L724.737 50.0705L719.049 26.1882L695.167 31.876L700.855 55.7583Z" fill="#F9E050"/>
<path d="M699.716 156.943L723.598 151.255L717.91 127.373L694.028 133.061L699.716 156.943Z" fill="#F9B038"/>
<path d="M671.284 37.5633L695.167 31.8754L689.517 8.15446L665.635 13.8423L671.284 37.5633Z" fill="#F9E050"/>
</mask>
<g mask="url(#mask0_4619_304)">
<g filter="url(#filter1_d_4619_304)">
<path d="M714.267 112.075L746.702 104.351L738.977 71.9159L706.542 79.6406L714.267 112.075Z" fill="#F9E050"/>
<path d="M647.402 43.2512L679.837 35.5266L674.187 11.8056L641.752 19.5303L647.402 43.2512Z" fill="#F4F464"/>
<path d="M676.972 61.4455L709.407 53.7208L701.682 21.286L669.247 29.0107L676.972 61.4455ZM605.341 78.5051L629.223 72.8173L623.536 48.9349L599.653 54.6228L605.341 78.5051ZM658.77 90.9833L682.652 85.2955L676.964 61.4132L653.082 67.101L658.77 90.9833Z" fill="#F4F464"/>
<path d="M719.94 135.893L752.374 128.169L744.65 95.7338L712.215 103.458L719.94 135.893Z" fill="#F9B038"/>
<path d="M715.061 153.288L756.016 143.534L750.328 119.652L709.373 129.406L715.061 153.288Z" fill="#F6842D"/>
<path d="M651.967 168.315L675.85 162.627L670.162 138.745L646.28 144.433L651.967 168.315Z" fill="#F9E050"/>
<path d="M697.204 40.4282L729.638 32.7035L721.952 0.430109L689.517 8.15479L697.204 40.4282Z" fill="#F6842D"/>
<path d="M670.141 138.732L694.024 133.045L688.336 109.162L664.454 114.85L670.141 138.732Z" fill="#F4F464"/>
<path d="M726.628 58.6574L759.063 50.9328L751.338 18.498L718.903 26.2227L726.628 58.6574Z" fill="#F4AC2B"/>
<path d="M732.304 82.491L764.739 74.7663L757.014 42.3315L724.58 50.0562L732.304 82.491Z" fill="#F6842D"/>
<path d="M738.004 106.422L770.439 98.6969L762.714 66.2621L730.279 73.9868L738.004 106.422Z" fill="#F4AC2B"/>
<path d="M743.676 130.24L776.111 122.516L768.386 90.081L735.952 97.8057L743.676 130.24Z" fill="#F6842D"/>
<path d="M713.415 2.46355L719.065 26.1845L742.786 20.5351L765.529 116.032L741.647 121.72L747.335 145.602L811.349 130.357C820.967 128.066 829.032 124.986 835.509 121.107C841.993 117.261 846.823 112.052 850.035 105.49C853.246 98.927 854.867 90.6971 854.833 80.8151C854.806 70.9654 853.063 58.8474 849.627 44.4212C846.16 29.8659 842.331 18.296 838.129 9.74747C833.873 1.04146 828.943 -5.33848 823.343 -9.37621C817.738 -13.6095 810.928 -15.9423 803.904 -16.035C796.585 -16.338 788.044 -15.327 778.313 -13.0096L737.116 -3.19814L713.415 2.46355ZM766.697 10.458L782.14 6.78018C787.465 5.51195 792.226 5.02601 796.359 5.33774C800.64 5.51146 804.679 7.36839 807.599 10.5047C810.968 13.6243 813.984 18.4137 816.684 24.8814C819.529 31.3145 822.268 40.0921 824.919 51.2264C827.563 62.3284 829.058 71.4703 829.465 78.6205C829.987 85.607 829.469 91.3064 827.914 95.735C826.478 99.8247 823.703 103.31 820.038 105.625C816.462 107.79 812.089 109.479 806.877 110.721L791.451 114.395L766.697 10.458Z" fill="#F14D34"/>
<path d="M700.855 55.7583L724.737 50.0705L719.049 26.1882L695.167 31.876L700.855 55.7583Z" fill="#F9E050"/>
<path d="M699.716 156.943L723.598 151.255L717.91 127.373L694.028 133.061L699.716 156.943Z" fill="#F9B038"/>
<path d="M671.284 37.5633L695.167 31.8754L689.517 8.15446L665.635 13.8423L671.284 37.5633Z" fill="#F9E050"/>
</g>
<rect x="594" y="30.8857" width="245.381" height="147.229" transform="rotate(-13.396 594 30.8857)" fill="url(#paint1_linear_4619_304)"/>
</g>
</g>
<g filter="url(#filter2_dd_4619_304)">
<mask id="mask1_4619_304" style="mask-type:alpha" maskUnits="userSpaceOnUse" x="984" y="621" width="481" height="348">
<path d="M1199.88 862.557L1260.85 848.036L1246.33 787.064L1185.35 801.585L1199.88 862.557Z" fill="#F9E050"/>
<path d="M1074.18 733.181L1135.15 718.659L1124.53 674.068L1063.56 688.589L1074.18 733.181Z" fill="#F4F464"/>
<path d="M1129.77 767.382L1190.74 752.861L1176.22 691.889L1115.25 706.41L1129.77 767.382ZM995.112 799.452L1040.01 788.76L1029.31 743.865L984.42 754.557L995.112 799.452ZM1095.55 822.909L1140.44 812.217L1129.75 767.322L1084.86 778.014L1095.55 822.909Z" fill="#F4F464"/>
<path d="M1167.8 727.874L1228.77 713.353L1214.32 652.684L1153.35 667.205L1167.8 727.874Z" fill="#F6842D"/>
<path d="M1223.11 762.143L1284.08 747.622L1269.56 686.65L1208.59 701.171L1223.11 762.143Z" fill="#F4AC2B"/>
<path d="M1233.78 806.946L1294.75 792.425L1280.23 731.452L1219.26 745.974L1233.78 806.946Z" fill="#F6842D"/>
<path d="M1244.5 851.93L1305.47 837.409L1290.95 776.437L1229.98 790.958L1244.5 851.93Z" fill="#F4AC2B"/>
<path d="M1198.27 656.507L1208.89 701.099L1253.49 690.479L1296.24 869.998L1251.35 880.69L1262.04 925.585L1382.37 896.926C1400.45 892.62 1415.62 886.829 1427.79 879.538C1439.98 872.308 1449.06 862.516 1455.1 850.18C1461.14 837.843 1464.18 822.372 1464.12 803.795C1464.07 785.28 1460.79 762.5 1454.33 735.381C1447.81 708.019 1440.61 686.269 1432.72 670.2C1424.72 653.834 1415.45 641.84 1404.92 634.25C1394.39 626.292 1381.58 621.907 1368.38 621.733C1354.62 621.163 1338.56 623.063 1320.27 627.42L1242.83 645.864L1198.27 656.507ZM1298.44 671.535L1327.47 664.622C1337.48 662.237 1346.43 661.324 1354.2 661.91C1362.24 662.237 1369.84 665.727 1375.32 671.623C1381.66 677.487 1387.33 686.491 1392.4 698.649C1397.75 710.742 1402.9 727.243 1407.88 748.173C1412.85 769.043 1415.67 786.229 1416.43 799.67C1417.41 812.803 1416.44 823.518 1413.51 831.842C1410.81 839.53 1405.6 846.082 1398.71 850.434C1391.99 854.504 1383.77 857.68 1373.97 860.013L1344.97 866.92L1298.44 671.535Z" fill="#F14D34"/>
<path d="M1174.66 756.69L1219.56 745.998L1208.87 701.103L1163.97 711.795L1174.66 756.69Z" fill="#F9E050"/>
<path d="M1119.07 722.489L1163.97 711.797L1153.35 667.205L1108.45 677.897L1119.07 722.489Z" fill="#F9E050"/>
</mask>
<g mask="url(#mask1_4619_304)">
<g filter="url(#filter3_d_4619_304)">
<path d="M1199.88 862.557L1260.85 848.036L1246.33 787.064L1185.35 801.585L1199.88 862.557Z" fill="#F9E050"/>
<path d="M1074.18 733.181L1135.15 718.659L1124.53 674.068L1063.56 688.589L1074.18 733.181Z" fill="#F4F464"/>
<path d="M1129.77 767.382L1190.74 752.861L1176.22 691.889L1115.25 706.41L1129.77 767.382ZM995.112 799.452L1040.01 788.76L1029.31 743.865L984.42 754.557L995.112 799.452ZM1095.55 822.909L1140.44 812.217L1129.75 767.322L1084.86 778.014L1095.55 822.909Z" fill="#F4F464"/>
<path d="M1167.8 727.874L1228.77 713.353L1214.32 652.684L1153.35 667.205L1167.8 727.874Z" fill="#F6842D"/>
<path d="M1223.11 762.143L1284.08 747.622L1269.56 686.65L1208.59 701.171L1223.11 762.143Z" fill="#F4AC2B"/>
<path d="M1233.78 806.946L1294.75 792.425L1280.23 731.452L1219.26 745.974L1233.78 806.946Z" fill="#F6842D"/>
<path d="M1244.5 851.93L1305.47 837.409L1290.95 776.437L1229.98 790.958L1244.5 851.93Z" fill="#F4AC2B"/>
<path d="M1198.27 656.507L1208.89 701.099L1253.49 690.479L1296.24 869.998L1251.35 880.69L1262.04 925.585L1382.37 896.926C1400.45 892.62 1415.62 886.829 1427.79 879.538C1439.98 872.308 1449.06 862.516 1455.1 850.18C1461.14 837.843 1464.18 822.372 1464.12 803.795C1464.07 785.28 1460.79 762.5 1454.33 735.381C1447.81 708.019 1440.61 686.269 1432.72 670.2C1424.72 653.834 1415.45 641.84 1404.92 634.25C1394.39 626.292 1381.58 621.907 1368.38 621.733C1354.62 621.163 1338.56 623.063 1320.27 627.42L1242.83 645.864L1198.27 656.507ZM1298.44 671.535L1327.47 664.622C1337.48 662.237 1346.43 661.324 1354.2 661.91C1362.24 662.237 1369.84 665.727 1375.32 671.623C1381.66 677.487 1387.33 686.491 1392.4 698.649C1397.75 710.742 1402.9 727.243 1407.88 748.173C1412.85 769.043 1415.67 786.229 1416.43 799.67C1417.41 812.803 1416.44 823.518 1413.51 831.842C1410.81 839.53 1405.6 846.082 1398.71 850.434C1391.99 854.504 1383.77 857.68 1373.97 860.013L1344.97 866.92L1298.44 671.535Z" fill="#F14D34"/>
<path d="M1174.66 756.69L1219.56 745.998L1208.87 701.103L1163.97 711.795L1174.66 756.69Z" fill="#F9E050"/>
<path d="M1119.07 722.489L1163.97 711.797L1153.35 667.205L1108.45 677.897L1119.07 722.489Z" fill="#F9E050"/>
</g>
<rect x="973.793" y="709.937" width="129.24" height="77.5442" transform="rotate(-13.396 973.793 709.937)" fill="url(#paint2_linear_4619_304)"/>
</g>
</g>
<defs>
<filter id="filter0_dd_4619_304" x="576.93" y="-26" width="307.08" height="261.169" filterUnits="userSpaceOnUse" color-interpolation-filters="sRGB">
<feFlood flood-opacity="0" result="BackgroundImageFix"/>
<feColorMatrix in="SourceAlpha" type="matrix" values="0 0 0 0 0 0 0 0 0 0 0 0 0 0 0 0 0 0 127 0" result="hardAlpha"/>
<feOffset dy="44.0975"/>
<feGaussianBlur stdDeviation="8.535"/>
<feColorMatrix type="matrix" values="0 0 0 0 0 0 0 0 0 0.0495833 0 0 0 0 0.145833 0 0 0 0.25 0"/>
<feBlend mode="normal" in2="BackgroundImageFix" result="effect1_dropShadow_4619_304"/>
<feColorMatrix in="SourceAlpha" type="matrix" values="0 0 0 0 0 0 0 0 0 0 0 0 0 0 0 0 0 0 127 0" result="hardAlpha"/>
<feOffset dy="4.97875"/>
<feColorMatrix type="matrix" values="0 0 0 0 0.2375 0 0 0 0 0.136562 0 0 0 0 0.136562 0 0 0 1 0"/>
<feBlend mode="normal" in2="effect1_dropShadow_4619_304" result="effect2_dropShadow_4619_304"/>
<feBlend mode="normal" in="SourceGraphic" in2="effect2_dropShadow_4619_304" result="shape"/>
</filter>
<filter id="filter1_d_4619_304" x="582.583" y="-16.0874" width="289.32" height="245.57" filterUnits="userSpaceOnUse" color-interpolation-filters="sRGB">
<feFlood flood-opacity="0" result="BackgroundImageFix"/>
<feColorMatrix in="SourceAlpha" type="matrix" values="0 0 0 0 0 0 0 0 0 0 0 0 0 0 0 0 0 0 127 0" result="hardAlpha"/>
<feOffset dy="44.0975"/>
<feGaussianBlur stdDeviation="8.535"/>
<feColorMatrix type="matrix" values="0 0 0 0 0 0 0 0 0 0.0495833 0 0 0 0 0.145833 0 0 0 0.25 0"/>
<feBlend mode="normal" in2="BackgroundImageFix" result="effect1_dropShadow_4619_304"/>
<feBlend mode="normal" in="SourceGraphic" in2="effect1_dropShadow_4619_304" result="shape"/>
</filter>
<filter id="filter2_dd_4619_304" x="964.802" y="603" width="531.066" height="408.189" filterUnits="userSpaceOnUse" color-interpolation-filters="sRGB">
<feFlood flood-opacity="0" result="BackgroundImageFix"/>
<feColorMatrix in="SourceAlpha" type="matrix" values="0 0 0 0 0 0 0 0 0 0 0 0 0 0 0 0 0 0 127 0" result="hardAlpha"/>
<feOffset dy="23.2258"/>
<feGaussianBlur stdDeviation="4.49532"/>
<feColorMatrix type="matrix" values="0 0 0 0 0 0 0 0 0 0.0495833 0 0 0 0 0.145833 0 0 0 0.25 0"/>
<feBlend mode="normal" in2="BackgroundImageFix" result="effect1_dropShadow_4619_304"/>
<feColorMatrix in="SourceAlpha" type="matrix" values="0 0 0 0 0 0 0 0 0 0 0 0 0 0 0 0 0 0 127 0" result="hardAlpha"/>
<feOffset dy="2.62227"/>
<feColorMatrix type="matrix" values="0 0 0 0 0.2375 0 0 0 0 0.136562 0 0 0 0 0.136562 0 0 0 1 0"/>
<feBlend mode="normal" in2="effect1_dropShadow_4619_304" result="effect2_dropShadow_4619_304"/>
<feBlend mode="normal" in="SourceGraphic" in2="effect2_dropShadow_4619_304" result="shape"/>
</filter>
<filter id="filter3_d_4619_304" x="975.429" y="621.634" width="497.68" height="378.863" filterUnits="userSpaceOnUse" color-interpolation-filters="sRGB">
<feFlood flood-opacity="0" result="BackgroundImageFix"/>
<feColorMatrix in="SourceAlpha" type="matrix" values="0 0 0 0 0 0 0 0 0 0 0 0 0 0 0 0 0 0 127 0" result="hardAlpha"/>
<feOffset dy="23.2258"/>
<feGaussianBlur stdDeviation="4.49532"/>
<feColorMatrix type="matrix" values="0 0 0 0 0 0 0 0 0 0.0495833 0 0 0 0 0.145833 0 0 0 0.25 0"/>
<feBlend mode="normal" in2="BackgroundImageFix" result="effect1_dropShadow_4619_304"/>
<feBlend mode="normal" in="SourceGraphic" in2="effect1_dropShadow_4619_304" result="shape"/>
</filter>
<linearGradient id="paint0_linear_4619_304" x1="3277.5" y1="-264.886" x2="432.018" y2="512.608" gradientUnits="userSpaceOnUse">
<stop stop-color="white"/>
<stop offset="1" stop-color="white" stop-opacity="0"/>
</linearGradient>
<linearGradient id="paint1_linear_4619_304" x1="698.198" y1="-39.8837" x2="755.098" y2="136.862" gradientUnits="userSpaceOnUse">
<stop stop-color="white"/>
<stop offset="1" stop-color="white" stop-opacity="0"/>
</linearGradient>
<linearGradient id="paint2_linear_4619_304" x1="1028.67" y1="672.663" x2="1058.64" y2="765.753" gradientUnits="userSpaceOnUse">
<stop stop-color="white"/>
<stop offset="1" stop-color="white" stop-opacity="0"/>
</linearGradient>
</defs>
</svg>
